<svg xmlns="http://www.w3.org/2000/svg" viewBox="0 0 1200 800" fill="none">
<rect width="1200" height="800" rx="48" fill="#07111F"/>
<rect x="80" y="84" width="1040" height="520" rx="34" fill="#111827"/>
<rect x="122" y="126" width="956" height="436" rx="22" fill="url(#a)"/>
<rect x="226" y="214" width="344" height="254" rx="22" fill="#F8FAFC" fill-opacity=".16"/>
<rect x="628" y="224" width="276" height="24" rx="12" fill="#E0F2FE"/>
<rect x="628" y="278" width="242" height="20" rx="10" fill="#BAE6FD"/>
<rect x="628" y="324" width="204" height="20" rx="10" fill="#7DD3FC"/>
<rect x="628" y="370" width="260" height="20" rx="10" fill="#38BDF8"/>
<rect x="544" y="604" width="112" height="74" rx="18" fill="#94A3B8"/>
<path d="M430 716C430 703.85 439.85 694 452 694H748C760.15 694 770 703.85 770 716V724H430V716Z" fill="#CBD5E1"/>
<circle cx="398" cy="340" r="96" fill="#22D3EE"/>
<path d="M342 366L382 324L422 350L460 302L514 378H342V366Z" fill="#F8FAFC"/>
<circle cx="420" cy="294" r="24" fill="#F8FAFC"/>
<defs>
<linearGradient id="a" x1="122" y1="126" x2="1078" y2="562" gradientUnits="userSpaceOnUse">
<stop stop-color="#0EA5E9"/>
<stop offset="1" stop-color="#1D4ED8"/>
</linearGradient>
</defs>
</svg>
