<svg xmlns="http://www.w3.org/2000/svg" viewBox="0 0 1200 800" fill="none">
<rect width="1200" height="800" rx="48" fill="#07111E"/>
<rect x="102" y="150" width="996" height="500" rx="44" fill="url(#a)"/>
<rect x="154" y="206" width="892" height="388" rx="32" fill="#0F172A"/>
<g fill="#E2E8F0">
<rect x="198" y="248" width="82" height="54" rx="14"/>
<rect x="298" y="248" width="82" height="54" rx="14"/>
<rect x="398" y="248" width="82" height="54" rx="14"/>
<rect x="498" y="248" width="82" height="54" rx="14"/>
<rect x="598" y="248" width="82" height="54" rx="14"/>
<rect x="698" y="248" width="82" height="54" rx="14"/>
<rect x="798" y="248" width="82" height="54" rx="14"/>
<rect x="898" y="248" width="104" height="54" rx="14"/>
<rect x="198" y="326" width="110" height="54" rx="14"/>
<rect x="326" y="326" width="82" height="54" rx="14"/>
<rect x="426" y="326" width="82" height="54" rx="14"/>
<rect x="526" y="326" width="82" height="54" rx="14"/>
<rect x="626" y="326" width="82" height="54" rx="14"/>
<rect x="726" y="326" width="82" height="54" rx="14"/>
<rect x="826" y="326" width="176" height="54" rx="14"/>
<rect x="198" y="404" width="140" height="54" rx="14"/>
<rect x="356" y="404" width="82" height="54" rx="14"/>
<rect x="456" y="404" width="82" height="54" rx="14"/>
<rect x="556" y="404" width="82" height="54" rx="14"/>
<rect x="656" y="404" width="82" height="54" rx="14"/>
<rect x="756" y="404" width="246" height="54" rx="14"/>
<rect x="198" y="482" width="140" height="54" rx="14"/>
<rect x="356" y="482" width="460" height="54" rx="14" fill="#38BDF8"/>
<rect x="834" y="482" width="168" height="54" rx="14"/>
</g>
<defs>
<linearGradient id="a" x1="102" y1="150" x2="1098" y2="650" gradientUnits="userSpaceOnUse">
<stop stop-color="#0EA5E9"/>
<stop offset="1" stop-color="#1D4ED8"/>
</linearGradient>
</defs>
</svg>
