<svg xmlns="http://www.w3.org/2000/svg" viewBox="0 0 1200 800" fill="none">
<rect width="1200" height="800" rx="48" fill="#07101C"/>
<rect x="86" y="96" width="1028" height="608" rx="52" fill="url(#a)"/>
<rect x="252" y="236" width="696" height="332" rx="166" fill="#0F172A"/>
<circle cx="600" cy="402" r="126" fill="#E0F2FE"/>
<circle cx="600" cy="402" r="86" fill="#38BDF8"/>
<circle cx="600" cy="402" r="44" fill="#0F172A"/>
<circle cx="862" cy="402" r="24" fill="#22D3EE"/>
<path d="M468 616H732V654C732 689.346 703.346 718 668 718H532C496.654 718 468 689.346 468 654V616Z" fill="#CBD5E1"/>
<rect x="548" y="568" width="104" height="72" rx="24" fill="#F8FAFC"/>
<rect x="350" y="314" width="138" height="24" rx="12" fill="#93C5FD"/>
<rect x="350" y="360" width="176" height="24" rx="12" fill="#BFDBFE"/>
<defs>
<linearGradient id="a" x1="86" y1="96" x2="1114" y2="704" gradientUnits="userSpaceOnUse">
<stop stop-color="#1D4ED8"/>
<stop offset="1" stop-color="#0F172A"/>
</linearGradient>
</defs>
</svg>
