<svg xmlns="http://www.w3.org/2000/svg" id="Capa_1" data-name="Capa 1" viewBox="0 0 512 512"><defs><style>      .cls-1 {        fill: #7a9f26;      }      .cls-2 {        fill: #dadada;      }      .cls-3 {        fill: #1399ae;      }      .cls-4 {        fill: #fff;      }      .cls-5 {        fill: #00c1de;      }      .cls-6 {        fill: #98c11e;      }      .cls-7 {        fill: #050d9e;      }    </style></defs><polygon class="cls-7" points="235.49 66.35 49.49 460.01 133.14 460.01 170.04 381.28 199.08 317.8 265.51 176.09 330.95 317.8 360.97 381.28 397.38 460.01 481.04 460.01 295.03 66.35 235.49 66.35"></polygon><g><path class="cls-4" d="M379.49,263.18c0,63.08-51.14,114.23-114.23,114.23s-114.23-51.14-114.23-114.23,51.15-114.23,114.23-114.23,114.23,51.14,114.23,114.23Z"></path><path class="cls-5" d="M372.54,223.87c-.23-.12-.45-.23-.69-.35-.75-.37-1.51-.75-2.28-1.14-.81-.29-1.63-.59-2.45-.9-1.66-.59-3.37-1.2-5.12-1.82-1.74-.65-3.63-.89-5.51-1.37-1.89-.4-3.81-.9-5.79-1.25-2-.21-4.03-.42-6.11-.63-1.03-.11-2.08-.21-3.13-.32l-1.59-.16h-1.6c-2.15.04-4.33.06-6.53.08-4.44-.16-8.92.6-13.52,1.1-1.15.13-2.31.27-3.47.41-1.17.11-2.33.29-3.47.57-2.3.5-4.63,1.01-6.98,1.53-2.35.51-4.71,1.03-7.1,1.55-2.32.73-4.67,1.46-7.02,2.19-2.35.74-4.72,1.48-7.1,2.23l-3.57,1.14-3.49,1.41c-4.66,1.88-9.36,3.78-14.08,5.68-4.64,1.84-9.32,4.05-14.03,5.73-9.32,3.71-19.04,6.6-28.69,8.81-9.67,2.19-19.35,3.58-28.78,4.07-3.75.2-7.44.21-11.08.12-.16,2.45-.26,4.91-.26,7.4s.1,4.75.24,7.1c3.88.34,7.81.57,11.81.59,2.58-.04,5.2-.06,7.83-.16,2.62-.14,5.25-.4,7.91-.6,5.28-.54,10.64-1.21,15.91-2.35,2.66-.5,5.31-1.04,7.93-1.73,2.62-.66,5.3-1.23,7.88-2.08l7.78-2.44c2.62-.89,5.25-1.89,7.88-2.84,5.46-2.03,9.27-3.96,14.55-6.13,4.42-1.8,8.75-3.77,13.09-5.66l3.24-1.44,3.27-1.15c2.17-.8,4.33-1.59,6.47-2.38,2.15-.79,4.29-1.58,6.41-2.37,2.14-.56,4.25-1.2,6.36-1.8,2.11-.62,4.21-1.23,6.28-1.84,1.04-.35,2.07-.58,3.1-.74,1.03-.21,2.06-.42,3.07-.63,4.08-.82,8.13-1.84,12-2.09,1.97-.23,3.9-.46,5.81-.69l1.43-.17h1.39c.93.01,1.85-.02,2.77-.05,1.85-.06,3.68-.12,5.47-.18,1.77.07,3.47.29,5.18.42,1.68.2,3.44.17,5.01.54,1.59.33,3.13.7,4.7.94.78.13,1.56.27,2.32.4.73.22,1.45.44,2.16.65,1.44.43,2.84.85,4.2,1.26,1.06.4,2.06.83,3.06,1.25-.88-3.3-1.89-6.56-3.06-9.73Z"></path><path class="cls-5" d="M378.65,249.53c-1.49-.44-3-.86-4.57-1.21-7.6-1.69-16.05-2.46-24.93-2.18-8.88.27-18.19,1.57-27.61,3.7-9.44,2.09-18.96,5.15-28.42,8.74-4.76,1.73-9.42,3.8-14.14,5.79-4.64,1.9-9.36,4.1-14.09,5.83-9.38,3.79-19.11,6.86-28.77,9.31-9.68,2.42-19.38,4.15-28.84,4.87-8.85.73-17.46.58-25.6-.25,1.04,4.83,2.39,9.54,4.02,14.13,7.3,1.02,14.95,1.48,22.74,1.27,2.6-.12,5.22-.24,7.87-.36,2.62-.28,5.25-.56,7.91-.84,5.27-.72,10.61-1.5,15.86-2.76l3.97-.87,3.92-1.03c2.6-.72,5.28-1.3,7.83-2.2l7.73-2.53c2.59-.91,5.2-1.92,7.79-2.88,1.29-.48,2.62-1,3.85-1.51l3.51-1.53,7.25-3.17c4.43-1.89,8.76-4.03,13.16-5.76,2.19-.91,4.36-1.85,6.56-2.62,2.18-.81,4.33-1.73,6.5-2.49,2.17-.75,4.32-1.49,6.47-2.23,2.15-.67,4.28-1.33,6.39-1.99,8.48-2.48,16.74-4.35,24.61-5.35,3.94-.59,7.77-.81,11.47-.95,3.72-.19,7.28-.06,10.73.19,2.65.27,5.17.67,7.62,1.13-.1-3.45-.35-6.87-.75-10.23Z"></path><path class="cls-5" d="M376.08,280.04c-1.03-.11-2.08-.21-3.13-.32l-1.59-.16h-1.6c-2.14.03-4.33.06-6.54.08-4.44-.16-8.92.59-13.52,1.1-1.15.14-2.3.27-3.47.41-1.17.11-2.33.28-3.48.57-2.3.5-4.63,1.01-6.98,1.53-2.35.51-4.71,1.03-7.09,1.55-2.33.73-4.67,1.46-7.02,2.19-2.36.74-4.72,1.48-7.11,2.23l-3.58,1.14-3.49,1.41c-4.67,1.88-9.37,3.78-14.09,5.68-4.64,1.84-9.32,4.05-14.03,5.73-9.33,3.71-19.05,6.61-28.7,8.82-9.67,2.19-19.35,3.58-28.78,4.07-10.08.52-19.79-.04-28.86-1.37.72,1.3,1.46,2.59,2.22,3.86,2.34,3.9,4.91,7.64,7.68,11.21,6.35.92,12.92,1.47,19.67,1.49,2.58-.04,5.2-.06,7.83-.15,2.62-.14,5.25-.4,7.91-.61,5.28-.55,10.64-1.21,15.91-2.35,2.66-.5,5.32-1.04,7.93-1.73,2.62-.67,5.3-1.23,7.88-2.08l7.78-2.44c2.61-.89,5.25-1.89,7.88-2.84,5.46-2.03,9.27-3.96,14.54-6.13,4.43-1.8,8.76-3.78,13.09-5.67l3.24-1.43,3.28-1.15c2.17-.8,4.33-1.59,6.47-2.38,2.15-.79,4.29-1.58,6.41-2.37,2.15-.56,4.26-1.2,6.37-1.8,2.11-.62,4.21-1.23,6.28-1.84,1.04-.35,2.08-.58,3.1-.74,1.03-.21,2.05-.42,3.08-.63,4.07-.82,8.12-1.84,12-2.09,1.96-.23,3.9-.46,5.8-.69,1.94-.35,3.74-.06,5.59-.22.29,0,.56-.02.85-.03.99-3.81,1.78-7.7,2.37-11.65-.72-.07-1.41-.15-2.13-.22Z"></path><path class="cls-3" d="M161.5,264.39c5.68,1.24,11.67,2.12,17.83,2.66-.14-2.35-.24-4.71-.24-7.1s.11-4.95.26-7.4c-9.71-.23-18.96-1.4-27.45-3.24-.49,4.03-.77,8.12-.83,12.27,3.36,1.05,6.81,2.02,10.42,2.81Z"></path><path class="cls-3" d="M181.67,284.12c-9.26-.95-17.92-2.8-25.55-5.42-1.45-.49-2.83-1.01-4.2-1.53.5,4.07,1.21,8.07,2.12,11.99,7.25,3.29,15.44,6.11,24.37,7.85,2.38.48,4.81.88,7.28,1.23-1.63-4.58-2.97-9.3-4.02-14.13Z"></path><path class="cls-3" d="M193.04,314.69c-7.91-1.16-15.34-2.89-22.02-5.05-4.3-1.38-8.28-2.9-11.98-4.48,1.81,4.58,3.9,9.03,6.26,13.3.82.39,1.63.79,2.48,1.16,7.46,3.37,15.92,6.4,25.19,8.4,3.23.71,6.58,1.27,9.97,1.76-2.77-3.58-5.34-7.32-7.68-11.21-.76-1.28-1.51-2.56-2.22-3.86Z"></path><path class="cls-6" d="M375.84,291.91c-.29,0-.56.02-.85.03-1.86.16-3.65-.14-5.59.22-1.91.23-3.84.46-5.8.69-3.88.25-7.93,1.27-12,2.09-1.02.21-2.04.42-3.08.63-1.03.16-2.07.39-3.1.74-2.07.6-4.17,1.22-6.28,1.84-2.11.6-4.22,1.24-6.37,1.8-2.12.78-4.26,1.57-6.41,2.37-2.14.79-4.3,1.58-6.47,2.38l-3.28,1.15-3.24,1.43c-4.34,1.89-8.66,3.87-13.09,5.67-5.27,2.17-9.09,4.1-14.54,6.13-2.62.95-5.26,1.95-7.88,2.84l-7.78,2.44c-2.57.85-5.25,1.41-7.88,2.08-2.62.69-5.28,1.23-7.93,1.73-5.28,1.14-10.63,1.81-15.91,2.35-2.65.2-5.28.47-7.91.61-2.63.1-5.25.11-7.83.15-6.75-.02-13.33-.58-19.67-1.49,20.71,26.77,53.02,44.08,89.41,44.38,40.77-9.92,72.99-41.7,83.49-82.24Z"></path><path class="cls-1" d="M165.3,318.46c19.48,35.15,56.94,58.95,99.96,58.95,9.34,0,18.4-1.15,27.09-3.26-36.38-.3-68.7-17.61-89.41-44.38-3.39-.49-6.74-1.05-9.97-1.76-9.27-2-17.73-5.03-25.19-8.4-.86-.37-1.66-.77-2.48-1.16Z"></path><path class="cls-2" d="M179.35,252.56c3.23-50.44,39.17-91.96,86.84-103.58-.31,0-.62-.02-.93-.02-58.38,0-106.51,43.82-113.36,100.36,8.49,1.84,17.73,3.01,27.45,3.24Z"></path><path class="cls-2" d="M151.92,277.17c1.37.52,2.76,1.05,4.2,1.53,7.63,2.62,16.29,4.47,25.55,5.42-1.19-5.55-1.99-11.25-2.34-17.07-6.16-.54-12.15-1.42-17.83-2.66-3.61-.78-7.06-1.75-10.42-2.81,0,.53-.04,1.06-.04,1.6,0,4.74.32,9.4.88,13.99Z"></path><path class="cls-2" d="M178.41,297.02c-8.93-1.74-17.12-4.57-24.37-7.85,1.28,5.5,2.95,10.84,4.99,15.99,3.71,1.58,7.68,3.1,11.98,4.48,6.68,2.17,14.11,3.89,22.02,5.05-2.86-5.24-5.32-10.74-7.35-16.44-2.47-.35-4.9-.76-7.28-1.23Z"></path></g></svg>